<?xml version="1.0" encoding="utf-8"?><svg viewBox="0 0 40 40" xmlns="http://www.w3.org/2000/svg" xmlns:xlink="http://www.w3.org/1999/xlink"><style>:root>svg{display:none}:root>svg:target{display:block}</style><svg fill="none" viewBox="0 0 22 22" id="arrow" xmlns="http://www.w3.org/2000/svg"><path d="M9.625 7.563L13.063 11l-3.438 3.438" stroke="currentColor" stroke-width="2" stroke-linecap="round" stroke-linejoin="round"/><circle cx="11" cy="11" r="10" stroke="currentColor" stroke-width="2"/></svg><svg fill="none" viewBox="0 0 24 24" id="burger-close" xmlns="http://www.w3.org/2000/svg"><rect x="4.575" y="2.954" width="24" height="2" rx="1.5" transform="rotate(45 4.575 2.954)" fill="currentColor"/><rect x="21.546" y="5.075" width="24" height="2" rx="1.5" transform="rotate(135 21.546 5.075)" fill="currentColor"/></svg><svg fill="none" viewBox="0 0 40 40" id="burger-open" xmlns="http://www.w3.org/2000/svg"><path d="M8.333 11.667h23.334M8.333 20H25M8.333 28.333h10" stroke="currentColor" stroke-width="2" stroke-linecap="round"/></svg><svg fill="none" viewBox="0 0 24 24" id="email-icon" xmlns="http://www.w3.org/2000/svg"><path d="M7.29 4.907a54.396 54.396 0 019.42 0l1.511.132a2.888 2.888 0 012.313 1.545.235.235 0 01-.091.307l-6.266 3.88a4.25 4.25 0 01-4.4.045L3.47 7.088a.236.236 0 01-.103-.293A2.889 2.889 0 015.78 5.039l1.51-.132z" fill="currentColor"/><path d="M3.362 8.767a.248.248 0 00-.373.187 30.352 30.352 0 00.184 7.56A2.888 2.888 0 005.78 18.96l1.51.131c3.135.273 6.287.273 9.422 0l1.51-.131a2.888 2.888 0 002.606-2.448 30.35 30.35 0 00.161-7.779.247.247 0 00-.377-.183l-5.645 3.495a5.75 5.75 0 01-5.951.06l-5.653-3.34z" fill="currentColor"/></svg><svg fill="none" viewBox="0 0 16 16" id="input-error" xmlns="http://www.w3.org/2000/svg"><circle cx="8" cy="8" r="6.5" stroke="currentColor"/><path d="M8 6v5.5M8 3.5v1" stroke="currentColor"/></svg></svg>